<svg width="15" height="10" viewBox="0 0 15 10" fill="none" xmlns="http://www.w3.org/2000/svg">
    <path fill-rule="evenodd" clip-rule="evenodd" d="M14.3833 0.35513C14.4391 0.410757 14.4833 0.476839 14.5135 0.549592C14.5437 0.622345 14.5593 0.700339 14.5593 0.779107C14.5593 0.857875 14.5437 0.935869 14.5135 1.00862C14.4833 1.08137 14.4391 1.14746 14.3833 1.20308L5.99961 9.58681C5.94398 9.64257 5.8779 9.68682 5.80515 9.71701C5.7324 9.7472 5.6544 9.76274 5.57563 9.76274C5.49687 9.76274 5.41887 9.7472 5.34612 9.71701C5.27337 9.68682 5.20728 9.64257 5.15166 9.58681L0.959796 5.39494C0.847351 5.2825 0.78418 5.12999 0.78418 4.97097C0.78418 4.81195 0.847351 4.65944 0.959796 4.54699C1.07224 4.43455 1.22475 4.37137 1.38377 4.37137C1.5428 4.37137 1.6953 4.43455 1.80775 4.54699L5.57563 8.31607L13.5354 0.35513C13.591 0.299362 13.6571 0.255117 13.7298 0.224928C13.8026 0.194739 13.8806 0.179199 13.9594 0.179199C14.0381 0.179199 14.1161 0.194739 14.1889 0.224928C14.2616 0.255117 14.3277 0.299362 14.3833 0.35513Z" fill="white"/>
</svg>
