<svg width="199" height="199" viewBox="0 0 199 199" fill="none" xmlns="http://www.w3.org/2000/svg">
    <path d="M13.8497 -11.0131C5.7661 -19.0967 -8.58344 -21.4883 -32.7385 -15.1267C-8.24862 -23.5451 5.90959 -21.01 13.8497 -11.0131ZM326 148.602V151.041C306.819 148.458 289.074 139.035 270.563 130.952C306.15 150.324 316.529 160.703 326 161.181V207.196C260.614 230.824 169.16 186.915 208.525 168.787C225.553 160.942 302.132 188.35 270.993 148.506C276.255 158.072 277.212 168.117 259.131 165.247C265.254 164.243 272.428 161.899 267.119 153.863C261.81 145.827 267.358 167.065 229.858 156.159C200.202 147.549 157.154 170.987 185.375 142.766C124.15 187.25 246.599 240.391 317.199 220.349C308.733 222.597 295.244 223.315 279.986 222.358C295.866 222.119 311.268 218.627 325.952 212.648V227.285C272.763 262.154 223.162 270.19 132.999 235.56C210.678 283.87 120.897 261.245 118.888 260.671C126.015 262.633 161.459 267.655 158.11 261.437C154.762 255.219 128.263 257.275 107.887 249.288C116.305 248.427 131.181 254.023 112.67 238.047C148.688 267.798 120.754 235.416 100.999 220.828C98.225 218.532 95.5942 216.092 93.0591 213.509C95.642 215.614 97.7945 216.092 99.2294 214.418C93.9201 205.234 89.2804 196.577 85.2147 188.398C86.3627 189.928 87.5585 191.507 88.8499 193.037C14.4715 39.4972 201.159 -21.1057 209.53 -74.2468C208.86 -72.1422 207.808 -70.0376 206.325 -67.9808C208.621 -74.1033 209.864 -78.5516 209.147 -82.9522H221.105C221.344 -82.3304 221.631 -81.6607 221.822 -80.9911C222.444 -81.6607 222.97 -82.3304 223.449 -82.9522H239.616C239.664 -73.7206 232.967 -62.7671 213.834 -48.7524C228.519 -58.0796 240.859 -69.4158 243.634 -83H251.478C232.106 -62.9106 204.603 -33.0158 188.579 -27.3238C135.295 -2.30775 101.717 50.7856 93.7288 102.874C100.521 80.2978 113.531 57.0515 131.229 34.9054C105.208 70.4444 89.9022 111.436 93.2983 146.593C94.8289 157.02 97.6031 167.017 101.669 176.296C114.87 202.508 143.57 221.928 192.836 227.524C132.903 194.664 128.694 111.962 205.942 102.492C230.576 98.426 253.63 105.505 276.303 113.445C247.221 106.127 207.616 94.1212 184.322 113.589C209.817 110.575 236.124 113.397 260.662 121.624C233.445 116.172 196.471 102.444 174.899 127.125C180.591 123.633 188.244 116.937 203.551 116.937C181.07 121.242 182.505 127.46 203.933 126.121C166.959 128.512 130.846 156.637 166.194 195.19C201.542 233.742 237.511 234.029 225.123 242.113C203.072 256.606 132.52 224.558 110.47 192.894C109.752 192.129 109.083 191.363 108.365 190.598C137.16 234.555 214.121 265.933 259.801 243.596C279.125 234.125 110.279 192.99 169.925 139.705C186.044 125.307 228.136 125.164 249.469 143.627C235.598 134.635 185.853 129.66 201.159 143.723C212.639 154.246 263.627 160.416 255.735 146.353C251.191 140.375 245.356 135.83 238.803 132.53C238.898 132.578 238.994 132.578 239.09 132.626C183.557 101.344 246.408 119.424 304.284 143.388C311.794 147.262 319.064 148.793 326 148.602ZM112.288 194.759C112.288 194.759 132.999 218.866 167.198 230.777C194.08 240.104 217.757 238.478 217.9 237.473C218.044 236.373 189.488 236.564 155.719 221.689C128.024 209.491 112.288 194.759 112.288 194.759ZM181.309 -28.2804C190.875 -34.7855 200.442 -41.2428 210.008 -47.748C202.02 -44.5432 187.192 -34.4986 181.309 -28.2804ZM91.6242 154.246C91.2415 149.463 88.4194 134.109 88.8021 129.134C85.4539 79.7238 107.983 25.3869 157.728 -8.76505C96.216 29.4526 74.883 84.4113 91.6242 154.246ZM86.0279 76.5191C92.246 64.1785 98.7511 51.216 105.352 38.1101C98.7511 45.9545 85.5974 71.975 86.0279 76.5191ZM151.318 236.708C122.476 222.837 96.1682 201.551 82.584 171.943C88.4194 197.247 126.828 235.225 151.318 236.708ZM273.194 143.818C277.116 149.654 279.603 151.854 285.295 162.09C305.528 198.49 193.649 154.007 205.751 184.475C213.117 203.034 264.775 212.122 280.081 212.122C237.99 204.469 210.056 193.372 212.973 181.127C217.422 162.855 349.438 226.472 273.194 143.818ZM58.6202 132.243C58.3332 123.681 57.5201 105.362 59.0986 96.8476C56.42 103.735 57.5201 122.438 58.6202 132.243ZM93.0591 213.461C91.2415 211.644 89.5196 209.778 87.8455 207.817C89.7109 210.257 91.4807 212.17 93.0591 213.461ZM87.8455 207.865C76.5572 193.085 62.2076 166.586 59.0986 139.418C59.9595 167.017 69.7172 186.867 87.8455 207.865ZM164.185 -76.2557C166.624 -72.2378 167.725 -67.8373 168.155 -63.6281C168.299 -68.3156 167.151 -72.6683 164.185 -76.2557ZM158.206 -83H153.375C158.302 -81.3737 161.793 -79.0778 164.137 -76.2557C162.702 -78.6473 160.789 -80.9432 158.206 -83ZM81.1012 181.988C70.0999 159.699 68.4736 151.328 65.3167 134.635C65.9385 154.437 67.7083 161.421 81.1012 181.988ZM66.2733 223.602C83.4928 243.213 124.628 254.693 102.625 231.733C108.844 247.518 79.6662 235.56 66.2733 223.602ZM131.899 -69.6549C131.659 -74.2946 130.607 -78.743 128.598 -83H118.219C121.328 -81.6607 124.245 -79.9388 126.972 -77.6907C122.189 -79.4604 117.406 -81.1824 112.431 -83H107.313C119.175 -80.0823 128.742 -75.6339 131.899 -69.6549ZM326 -83V-64.2021C294.144 -77.3558 267.167 -66.3545 251.861 -53.3443C236.555 -40.334 215.126 -37.8468 198.433 -27.7064C216.035 -40.0949 240.381 -45.2129 254.922 -60.0407C269.463 -74.8686 263.962 -77.021 266.88 -83H326ZM301.893 -76.8775C291.609 -76.734 282.808 -72.7162 274.198 -68.0286C283.286 -71.4247 292.566 -74.3903 301.893 -76.8775ZM277.642 217.575C266.354 216.858 254.109 215.231 242.247 212.648C254.204 216.236 266.019 217.766 277.642 217.575ZM244.638 217.479C237.75 215.423 230.863 212.744 223.879 209.3C153.327 170.03 215.03 159.986 244.734 165.008C226.988 157.594 174.852 148.458 189.632 186.15C186.379 182.084 179.635 176.248 181.07 165.247C171.503 191.555 212.878 210.544 244.638 217.479ZM190.158 -21.297C164.424 -5.65598 149.405 10.0807 131.277 34.8576C149.405 12.1853 164.089 -2.92957 190.158 -21.297ZM326 132.243V128.225C319.017 127.077 298.018 120.955 291.083 118.85C300.697 122.629 323.8 130.808 326 132.243ZM136.251 -83H152.849C185.47 -65.6849 142.661 -36.651 135.534 -16.5616C147.922 -22.7319 167.485 -45.7869 168.155 -63.5803C170.116 -43.6823 156.962 -26.989 197.189 -63.2933C204.077 -67.8373 205.368 -75.2512 202.737 -83H205.177C209.482 -41.8168 126.637 -20.8665 118.314 -0.585808C138.643 -5.08199 104.778 10.3677 109.8 13.5724C131.516 -0.681473 148.305 -21.0578 170.451 -34.6899C118.793 1.47096 62.4468 66.8092 64.5035 130.426C49.4365 51.0247 149.357 -34.9769 144.335 -66.6415C141.848 -82.0434 138.547 -78.9343 136.251 -83ZM126.541 -17.1834C123.767 -17.9009 118.601 -13.0699 118.506 -7.9519C121.567 -11.4436 124.054 -14.3135 126.541 -17.1834ZM153.279 -64.4413C152.658 -66.3545 152.084 -68.0765 151.366 -70.3246C149.022 -66.2589 149.596 -64.4413 153.279 -64.4413ZM158.445 -62.4323C157.01 -64.8717 157.489 -70.4681 154.81 -69.4636C155.862 -67.3112 152.275 -63.6281 158.445 -62.4323ZM141.752 -81.7085C146.392 -65.9719 148.688 -81.8042 159.067 -71.3769C158.11 -77.1645 150.027 -82.4739 141.752 -81.7085ZM37.5742 203.512C50.0583 227.524 58.2854 242.017 95.4507 250.388C72.7785 240.486 55.1763 227.763 37.5742 203.512ZM-38 206.526V210.592C-16.5235 234.316 6.05309 261.676 30.9735 272.582C35.661 275.547 40.3963 278.369 45.1795 281H51.9716C35.1827 272.916 20.0678 263.207 7.39238 251.966C-7.67464 241.826 -22.646 223.506 -38 206.526ZM-38 -20.8665V-24.5017C74.883 -69.6071 33.7477 59.5388 28.4862 91.5382C23.2247 123.538 35.661 185.336 45.7057 170.365C55.7503 155.394 20.8331 134.635 87.9411 4.67569C58.6681 45.9067 40.4442 118.372 32.9346 118.563C25.425 118.755 29.4428 93.9777 33.7477 84.4113C28.4862 179.597 107.6 -96.2972 -33.6951 -36.077C-34.8431 -35.4552 -36.2781 -34.8334 -38 -34.1637V-45.7869C3.70933 -67.4068 28.0079 -80.4171 62.6859 -80.4171C97.364 -80.4171 124.867 -73.0988 131.659 -62.815C124.819 0.370834 -9.20526 96.6084 81.9143 213.701C101.238 235.081 92.1025 236.516 71.5348 220.732C50.9671 204.947 29.108 168.069 20.4983 123.442C21.1201 149.989 24.8032 176.248 36.235 198.155C24.1335 181.51 18.9198 167.639 15.7151 136.165C12.5104 104.692 22.1724 59.0126 23.129 23.5214C24.6597 34.6662 24.6118 41.6018 24.1813 51.4074C45.9926 -23.6886 3.56583 -36.651 -38 -20.8665ZM13.1322 -64.4891C5.52694 -63.0063 -9.49225 -57.9361 -15.1364 -53.3443C-5.71354 -57.0752 3.70933 -60.7582 13.1322 -64.4891ZM111.905 -65.2544C118.936 -58.558 116.736 -47.3175 112.814 -38.0381C113.34 -38.8034 113.914 -39.6166 114.536 -40.4297C121.041 -49.8047 118.888 -59.4189 111.905 -65.2544ZM111.427 -59.3233C112.001 -51.4788 111.14 -44.5911 108.604 -36.6988C115.11 -46.3608 116.114 -54.3966 111.427 -59.3233ZM66.4168 -72.5727C74.0221 -72.5727 81.5795 -72.5727 89.1848 -72.5727C82.7275 -73.1945 72.9698 -73.1945 66.4168 -72.5727ZM109.705 -57.2665C102.195 -75.0121 71.9653 -71.6639 55.7503 -69.1288C73.5438 -69.1766 97.5553 -73.3858 109.705 -57.2665ZM106.93 -37.512C101.765 -26.7976 91.1459 -20.6273 85.0234 -10.774C91.6242 -11.1566 106.213 -30.098 106.93 -37.512ZM314.186 43.6108C304.619 33.3269 304.141 31.4615 309.163 24.765C299.31 29.6439 307.585 39.7842 314.186 43.6108ZM292.9 -66.9763C303.902 -67.5503 315.047 -64.5848 326 -62.0497V-62.4802C315.238 -66.6894 304.571 -70.9942 292.9 -66.9763ZM326 112.058V106.318C313.899 102.635 302.084 99.3348 290.174 97.9477C301.462 101.583 313.755 109.858 326 112.058ZM-38 226.328C-18.8673 245.365 0.361103 264.498 20.7853 281H30.543C6.53141 260.432 -15.5669 235.225 -38 216.284V226.328ZM-38 229.772V252.349C-24.2244 259.189 -9.10959 268.659 7.39238 281H14.8063C-3.46544 269.377 -20.7806 248.618 -38 229.772ZM326 48.7766V20.795C322.939 22.5648 319.638 24.2867 316.099 25.9608C313.038 34.7619 317.916 43.0368 326 48.7766ZM302.18 24.7172C291.131 30.1222 299.214 35.6229 304.428 41.4584C299.884 32.5616 294.862 31.6528 302.18 24.7172ZM274.15 -40.7645C298.736 -47.6045 310.168 -41.0515 326 -32.9201V-34.0681C309.737 -42.0081 301.606 -50.4744 274.15 -40.7645ZM326 3.00158V2.95374C325.809 3.04941 325.617 3.14507 325.426 3.24074C325.617 3.14507 325.809 3.04941 326 3.00158ZM322.843 281C323.895 280.426 324.948 279.9 326 279.326V276.695C323.895 278.178 321.743 279.565 319.591 281H322.843ZM-37.3782 -83C-37.5217 -82.9522 -37.6652 -82.9043 -37.7608 -82.8565C-37.6173 -82.9043 -37.4739 -82.9522 -37.3304 -83H-37.3782ZM-38 -82.8087C-37.9043 -82.8087 -37.8565 -82.8565 -37.7608 -82.8565C-37.8565 -82.8565 -37.9043 -82.8087 -38 -82.8087ZM-22.1198 -83C-28.051 -80.6562 -33.3603 -78.7908 -38 -77.3558V-61.954C-17.6237 -70.1811 3.32667 -77.1645 23.416 -83H-22.1198ZM108.509 281H116.545C105.256 276.886 75.17 260.002 71.3913 257.897C85.5974 267.99 98.6076 275.882 108.509 281ZM-38 1.56663V-6.56478C65.0775 -32.8723 -33.6951 154.102 45.61 238.095C-27.477 192.033 3.61367 92.5427 -3.51327 24.5737C-5.85703 2.1406 -20.7806 -0.155319 -38 1.56663ZM-10.7359 -1.20762C13.6583 25.5782 -2.36531 81.5414 -0.882523 121.768C-1.02602 92.9254 29.9212 7.88042 -10.7359 -1.20762ZM246.886 281C272.955 274.208 297.636 263.398 318.825 248.331C321.265 245.939 323.656 243.596 325.952 241.347V232.259C292.231 253.21 257.361 271.003 222.827 281H246.886ZM48.3364 240.821C53.9327 246.274 60.6292 251.105 68.6649 255.171L48.3364 240.821ZM261.905 106.414C233.445 86.5159 304.38 124.064 326 126.551V118.181C291.465 108.471 202.355 80.7761 261.905 106.414ZM-0.930355 192.176C5.04862 206.861 11.2668 229.82 49.0539 249.909C19.8765 225.993 9.8318 210.687 -0.930355 192.176ZM-26.5204 137.983C-25.0854 158.072 -14.3233 171.609 -4.51774 183.423C-28.8163 111.101 19.6852 6.54113 -38 5.44099V11.8505C-33.3603 11.1808 -32.7385 5.96716 -23.8896 10.3198C-1.50434 22.6605 -9.58791 60.3519 -14.9451 78.7193C-16.1887 61.452 -6.81367 36.6273 -23.1721 24.8129C-38.9566 19.6949 -20.2544 44.7587 -23.3156 52.4597C-26.6639 42.1758 -31.734 35.4794 -38 31.5572V43.5151C-20.3022 60.3041 -24.5114 107.131 -23.8896 127.221C-31.0644 112.919 -33.8865 96.4649 -38 80.7761V156.446C-27.477 175.531 -18.7238 196.051 -12.1708 211.596C-20.9719 200.547 -29.3424 187.058 -38 173.809V197.199C-15.7582 218.532 6.86623 246.561 31.4039 265.168C18.9198 257.658 7.00972 249.048 -4.18292 239.339C11.1233 253.592 28.1035 265.407 46.184 274.973C48.7191 276.408 51.2541 277.7 53.8371 278.848C55.3198 279.565 56.7548 280.235 58.2376 280.952H105.161C5.52693 258.041 -29.8686 164.29 -26.5204 137.983ZM313.612 281C317.821 278.991 321.982 276.839 326 274.543V249.048C303.184 263.207 281.182 273.682 260.04 281H313.612ZM288.596 131.908C302.61 139.322 314.52 145.158 326 145.014V132.817C324.804 132.769 321.36 131.908 314.903 129.947C339.441 153.241 305.624 140.709 288.596 131.908ZM-38 281H-7.57898C-17.815 275.117 -28.051 269.138 -38 263.876V281ZM127.976 80.4891C127.976 80.4413 128.024 80.3934 128.024 80.3456C128.024 80.3934 128.024 80.4413 127.976 80.4891ZM128.55 79.3411C128.359 79.6759 128.216 80.0108 128.024 80.3456C128.216 80.0108 128.359 79.6759 128.55 79.3411ZM128.742 79.0063C128.694 79.102 128.646 79.1498 128.598 79.2455C128.646 79.1498 128.694 79.102 128.742 79.0063ZM128.598 79.2455C128.598 79.2933 128.55 79.2933 128.55 79.3411C128.55 79.2933 128.598 79.2933 128.598 79.2455ZM132.281 82.0197C103.104 110.719 116.497 180.553 125.68 157.69C143.617 113.158 185.853 72.9317 238.946 95.8909C211.682 80.1064 261.858 89.9598 292.374 95.2691C258.796 87.5682 223.927 77.093 190.732 87.4247C201.111 82.6415 207.234 80.6326 218.857 80.5848C191.64 77.8105 169.16 83.933 145.961 101.631C122.763 119.329 156.197 60.4954 151.414 57.6255C146.966 54.9469 134.673 67.5745 128.742 79.0063C136.443 64.4176 147.157 67.3832 132.281 82.0197ZM127.498 81.5414C127.642 81.1587 127.833 80.8239 127.976 80.4891C127.833 80.8239 127.642 81.2066 127.498 81.5414ZM228.901 80.5848C257.935 83.5503 275.537 91.2991 303.519 94.456C275.011 88.477 256.644 80.3934 228.901 80.5848ZM288.596 131.908C287.83 131.526 287.113 131.095 286.347 130.712C287.017 131.143 287.782 131.526 288.596 131.908ZM8.87516 -76.0166C13.3235 -77.6428 17.7719 -79.2691 22.2202 -80.8954C17.0066 -82.6173 12.893 -78.4081 8.87516 -76.0166ZM41.4965 -83H33.6042C1.36557 -69.5593 -61.8681 -45.5477 41.4965 -83ZM169.064 258.28C191.066 268.372 168.681 271.003 156.484 270.668C174.804 273.49 196.137 266.603 169.064 258.28ZM192.645 263.398C206.564 273.156 187.814 274.112 179.109 275.069C188.771 274.447 215.843 273.108 192.645 263.398ZM218.809 262.824C249.469 275.786 217.326 278.13 200.202 281H206.468C226.271 278.8 255.831 272.008 218.809 262.824ZM326 99.4783V97.6607C320.93 97.6129 315.764 97.2781 310.503 96.7041C315.764 97.7564 320.93 98.713 326 99.4783ZM114.105 186.293C120.323 196.816 132.281 204.947 137.543 205.904C130.846 202.556 121.28 194.903 114.105 186.293ZM168.633 218.34C107.983 156.255 165.763 99.7175 206.899 92.5427C178.678 93.4993 119.845 136.548 134.194 178.162C124.15 177.061 112.67 160.464 109.513 143.962C111.714 168.595 128.933 194.903 168.633 218.34ZM132.281 195.381C113.148 178.162 104.73 152.141 104.634 134.922C102.578 152.859 106.93 176.248 132.281 195.381ZM326 102.492V101.2C322.508 100.865 318.969 100.435 315.381 99.861C319.208 100.722 322.747 101.583 326 102.492ZM326 -58.271V-48.7524C313.755 -53.153 313.085 -58.1275 282.186 -53.2965C251.287 -48.4654 165.046 -4.0297 146.296 30.3135C177.721 -7.90408 302.658 -69.5114 326 -24.7887V-2.59474C294.479 17.8773 199.15 26.487 209.386 44.4239C213.93 50.2594 227.945 56.2384 241.338 47.1503C215.03 41.4105 262.145 24.2867 269.319 21.2733C210.678 47.9156 260.949 43.3238 286.874 46.385C312.798 49.4463 315.047 55.1382 326 59.2518V60.4476C302.515 54.0859 298.736 46.7198 253.774 48.394C304.476 51.4552 281.038 67.718 326 68.8181V90.2468C277.69 90.6773 263.819 76.7104 227.849 76.7104C191.88 76.7104 170.355 79.5803 155.862 88.3813C130.368 104.979 167.198 51.4074 170.642 43.4673C193.075 -5.56032 111.427 76.0407 104.634 134.922C104.395 84.5548 149.022 21.2733 200.681 18.4034C216.943 17.4468 118.41 96.8476 167.677 82.0197C127.498 79.6281 261.905 8.35873 221.296 9.02838C151.988 10.1763 120.419 63.2697 101.047 111.006C94.3028 35.0011 249.469 -71.4247 326 -58.271ZM242.916 50.4507C247.317 53.225 256.5 52.0292 263.484 52.651C256.644 51.4552 249.9 48.7766 242.916 50.4507ZM203.311 74.4623C188.101 73.4578 155.719 83.4547 180.113 60.4954C150.457 85.3679 186.235 76.3277 203.311 74.4623Z" fill="white" fill-opacity="0.06"/>
</svg>
