<svg width="298" height="92" viewBox="0 0 298 92" fill="none" xmlns="http://www.w3.org/2000/svg">
    <path d="M210.691 25.6794L193.442 42.9521L179.768 29.2539C177.234 26.7192 173.099 26.7192 170.567 29.2539L158.523 41.3216C155.992 43.8532 155.992 47.9913 158.523 50.523L172.17 64.1971L154.922 81.4457L136.465 62.9885C127.04 53.561 127.04 38.2836 136.465 28.8591L158.074 7.21924C167.529 -2.23538 182.806 -2.23538 192.261 7.21924L210.691 25.6794Z" fill="white"/>
    <path d="M210.691 25.6794L193.442 42.9521L179.768 29.2539C177.234 26.7192 173.099 26.7192 170.567 29.2539L158.523 41.3216C155.992 43.8532 155.992 47.9913 158.523 50.523L172.17 64.1971L154.922 81.4457L136.465 62.9885C127.04 53.561 127.04 38.2836 136.465 28.8591L158.074 7.21924C167.529 -2.23538 182.806 -2.23538 192.261 7.21924L210.691 25.6794Z" stroke="#0F0F0F"/>
    <path d="M230.951 45.9375L213.702 63.2133L213.675 63.1861L230.951 45.9375Z" fill="white"/>
    <path d="M230.951 45.9375L213.702 63.2133L213.675 63.1861L230.951 45.9375Z" stroke="#3E3E3E"/>
    <path d="M269.273 84.6272C259.848 94.0517 244.568 94.0517 235.116 84.6272L216.683 66.1972L233.932 48.9486L269.273 84.6272Z" fill="white"/>
    <path d="M269.273 84.6272C259.848 94.0517 244.568 94.0517 235.116 84.6272L216.683 66.1972L233.932 48.9486L269.273 84.6272Z" stroke="#0F0F0F"/>
    <path d="M290.925 63.003L290.557 63.3677L256.515 29.3015C253.956 26.7427 249.8 26.7578 247.262 29.3407L230.963 45.9232L213.687 63.1718L192.247 84.6127C182.813 94.0462 167.52 94.0462 158.087 84.6127L157.921 84.4439L175.167 67.1682L196.439 45.9232L213.687 28.6475L235.128 7.20658C244.562 -2.22694 259.854 -2.22694 269.288 7.20658L290.925 28.8434C300.358 38.2769 300.358 53.5695 290.925 63.003Z" fill="white"/>
    <path d="M290.925 63.003L290.557 63.3677L256.515 29.3015C253.956 26.7427 249.8 26.7578 247.262 29.3407L230.963 45.9232L213.687 63.1718L192.247 84.6127C182.813 94.0462 167.52 94.0462 158.087 84.6127L157.921 84.4439L175.167 67.1682L196.439 45.9232L213.687 28.6475L235.128 7.20658C244.562 -2.22694 259.854 -2.22694 269.288 7.20658L290.925 28.8434C300.358 38.2769 300.358 53.5695 290.925 63.003Z" stroke="#0F0F0F"/>
    <path d="M141.431 17.877L113.577 45.7285L102.715 56.5544L74.9383 84.3306C65.4566 93.8093 50.0796 93.8093 40.5979 84.3306L40.5195 84.2492L117.654 7.11132C127.139 -2.37042 142.513 -2.37042 151.995 7.11132L141.431 17.877Z" fill="white"/>
    <path d="M141.431 17.877L113.577 45.7285L102.715 56.5544L74.9383 84.3306C65.4566 93.8093 50.0796 93.8093 40.5979 84.3306L40.5195 84.2492L117.654 7.11132C127.139 -2.37042 142.513 -2.37042 151.995 7.11132L141.431 17.877Z" stroke="#0F0F0F"/>
    <path d="M100.914 17.877L73.0599 45.7285L62.1947 56.5544L34.4216 84.3306C24.9398 93.8093 9.56289 93.8093 0.0781204 84.3306L-0.000244141 84.2492L77.1377 7.11132C86.6194 -2.37042 101.996 -2.37042 111.478 7.11132L100.914 17.877Z" fill="white"/>
    <path d="M100.914 17.877L73.0599 45.7285L62.1947 56.5544L34.4216 84.3306C24.9398 93.8093 9.56289 93.8093 0.0781204 84.3306L-0.000244141 84.2492L77.1377 7.11132C86.6194 -2.37042 101.996 -2.37042 111.478 7.11132L100.914 17.877Z" stroke="#0F0F0F"/>
</svg>
