<svg width="123" height="38" viewBox="0 0 123 38" fill="none" xmlns="http://www.w3.org/2000/svg">
    <path d="M86.6142 10.5567L79.5234 17.6574L73.9021 12.0262C72.8601 10.9842 71.1602 10.9842 70.1194 12.0262L65.1683 16.9871C64.1276 18.0279 64.1276 19.729 65.1683 20.7698L70.7785 26.3911L63.6877 33.4819L56.1001 25.8943C52.2257 22.0187 52.2257 15.7382 56.1001 11.8639L64.9837 2.96785C68.8705 -0.918896 75.151 -0.918896 79.0377 2.96785L86.6142 10.5567Z" fill="black"/>
    <path d="M86.6142 10.5567L79.5234 17.6574L73.9021 12.0262C72.8601 10.9842 71.1602 10.9842 70.1194 12.0262L65.1683 16.9871C64.1276 18.0279 64.1276 19.729 65.1683 20.7698L70.7785 26.3911L63.6877 33.4819L56.1001 25.8943C52.2257 22.0187 52.2257 15.7382 56.1001 11.8639L64.9837 2.96785C68.8705 -0.918896 75.151 -0.918896 79.0377 2.96785L86.6142 10.5567Z" stroke="#0F0F0F"/>
    <path d="M94.9428 18.8848L87.852 25.9868L87.8408 25.9757L94.9428 18.8848Z" fill="black"/>
    <path d="M94.9428 18.8848L87.852 25.9868L87.8408 25.9757L94.9428 18.8848Z" stroke="#3E3E3E"/>
    <path d="M110.697 34.7895C106.823 38.6639 100.541 38.6639 96.6554 34.7895L89.0776 27.2131L96.1684 20.1223L110.697 34.7895Z" fill="black"/>
    <path d="M110.697 34.7895C106.823 38.6639 100.541 38.6639 96.6554 34.7895L89.0776 27.2131L96.1684 20.1223L110.697 34.7895Z" stroke="#0F0F0F"/>
    <path d="M119.598 25.9002L119.447 26.0501L105.452 12.0457C104.4 10.9938 102.692 11 101.649 12.0618L94.9481 18.8788L87.8461 25.9696L79.0319 34.7838C75.1538 38.6619 68.8671 38.6619 64.989 34.7838L64.9209 34.7144L72.0105 27.6125L80.7553 18.8788L87.8461 11.7768L96.6604 2.96259C100.538 -0.915478 106.825 -0.915478 110.703 2.96259L119.598 11.8574C123.476 15.7354 123.476 22.0221 119.598 25.9002Z" fill="black"/>
    <path d="M119.598 25.9002L119.447 26.0501L105.452 12.0457C104.4 10.9938 102.692 11 101.649 12.0618L94.9481 18.8788L87.8461 25.9696L79.0319 34.7838C75.1538 38.6619 68.8671 38.6619 64.989 34.7838L64.9209 34.7144L72.0105 27.6125L80.7553 18.8788L87.8461 11.7768L96.6604 2.96259C100.538 -0.915478 106.825 -0.915478 110.703 2.96259L119.598 11.8574C123.476 15.7354 123.476 22.0221 119.598 25.9002Z" stroke="#0F0F0F"/>
    <path d="M58.1417 7.34914L46.6908 18.7987L42.2255 23.2492L30.8069 34.6678C26.909 38.5645 20.5876 38.5645 16.6897 34.6678L16.6575 34.6344L48.3672 2.92343C52.2663 -0.974464 58.5865 -0.974464 62.4844 2.92343L58.1417 7.34914Z" fill="black"/>
    <path d="M58.1417 7.34914L46.6908 18.7987L42.2255 23.2492L30.8069 34.6678C26.909 38.5645 20.5876 38.5645 16.6897 34.6678L16.6575 34.6344L48.3672 2.92343C52.2663 -0.974464 58.5865 -0.974464 62.4844 2.92343L58.1417 7.34914Z" stroke="#0F0F0F"/>
    <path d="M41.4855 7.34914L30.0346 18.7987L25.568 23.2492L14.1506 34.6678C10.2527 38.5645 3.93135 38.5645 0.0322152 34.6678L0 34.6344L31.711 2.92343C35.6089 -0.974464 41.9303 -0.974464 45.8282 2.92343L41.4855 7.34914Z" fill="black"/>
    <path d="M41.4855 7.34914L30.0346 18.7987L25.568 23.2492L14.1506 34.6678C10.2527 38.5645 3.93135 38.5645 0.0322152 34.6678L0 34.6344L31.711 2.92343C35.6089 -0.974464 41.9303 -0.974464 45.8282 2.92343L41.4855 7.34914Z" stroke="#0F0F0F"/>
</svg>
