<svg width="25" height="18" viewBox="0 0 25 18" fill="none" xmlns="http://www.w3.org/2000/svg">
    <path d="M24.7797 1.25586L17.1978 8.78901L24.7797 16.3222C24.9168 16.0357 25 15.719 25 15.3808V2.19722C25 1.85898 24.9168 1.54233 24.7797 1.25586Z" fill="black"/>
    <path d="M22.8027 0H2.19722C1.85898 0 1.54233 0.0831546 1.25586 0.220215L10.9464 9.86199C11.8033 10.7188 13.1966 10.7188 14.0535 9.86199L23.744 0.220215C23.4576 0.0831546 23.1409 0 22.8027 0Z" fill="black"/>
    <path d="M0.220215 1.25586C0.0831543 1.54233 0 1.85898 0 2.19722V15.3808C0 15.719 0.0831543 16.0357 0.220215 16.3222L7.8022 8.78901L0.220215 1.25586Z" fill="black"/>
    <path d="M16.1621 9.82471L15.0892 10.8976C13.6615 12.3253 11.3384 12.3253 9.91069 10.8976L8.83784 9.82471L1.25586 17.3579C1.54233 17.4949 1.85898 17.5781 2.19722 17.5781H22.8027C23.1409 17.5781 23.4576 17.4949 23.744 17.3579L16.1621 9.82471Z" fill="black"/>
</svg>
