<svg xmlns="http://www.w3.org/2000/svg" display="none">

    <symbol id="arrow-right" viewBox="0 0 11 17">
        <path d="M2.43335 14.7L8.63335 8.50005L2.43335 2.30005" stroke-width="2.06667"
              stroke-linecap="square"/>
    </symbol>

    <symbol id="arrow-left" viewBox="0 0 11 17">
        <path d="M8.56665 14.7L2.36665 8.50005L8.56665 2.30005" stroke-width="2.06667"
              stroke-linecap="square"/>
    </symbol>

    <symbol id="arrow-bottom" viewBox="0 0 15 9">
        <path d="M1.69995 1.56668L7.49995 7.36668L13.3 1.56668" stroke-width="1.93333" stroke-linecap="square"/>
    </symbol>

    <symbol id="mail" viewBox="0 0 25 18">
        <path d="M24.7797 1.25586L17.1978 8.78901L24.7797 16.3222C24.9168 16.0357 25 15.719 25 15.3808V2.19722C25 1.85898 24.9168 1.54233 24.7797 1.25586Z"/>
        <path d="M22.8027 0H2.19722C1.85898 0 1.54233 0.0831546 1.25586 0.220215L10.9464 9.86199C11.8033 10.7188 13.1966 10.7188 14.0535 9.86199L23.744 0.220215C23.4576 0.0831546 23.1409 0 22.8027 0Z"/>
        <path d="M0.220215 1.25586C0.0831543 1.54233 0 1.85898 0 2.19722V15.3808C0 15.719 0.0831543 16.0357 0.220215 16.3222L7.8022 8.78901L0.220215 1.25586Z"/>
        <path d="M16.1621 9.82471L15.0892 10.8976C13.6615 12.3253 11.3384 12.3253 9.91069 10.8976L8.83784 9.82471L1.25586 17.3579C1.54233 17.4949 1.85898 17.5781 2.19722 17.5781H22.8027C23.1409 17.5781 23.4576 17.4949 23.744 17.3579L16.1621 9.82471Z"/>
    </symbol>

    <symbol id="telegram" viewBox="0 0 20 17">
        <path d="M1.3749 7.31846C6.74359 4.91938 10.3236 3.33777 12.1148 2.57361C17.2292 0.391776 18.2919 0.0127698 18.9846 0.00012133C19.1369 -0.00249777 19.4776 0.0362266 19.6982 0.219862C19.8845 0.37492 19.9358 0.584381 19.9603 0.731393C19.9848 0.878405 20.0154 1.2133 19.9911 1.47498C19.714 4.46174 18.5147 11.7098 17.9046 15.055C17.6465 16.4705 17.1382 16.9451 16.6461 16.9916C15.5766 17.0925 14.7645 16.2667 13.7287 15.5702C12.1078 14.4805 11.1921 13.8021 9.61879 12.7387C7.80053 11.5097 8.97923 10.8343 10.0154 9.73042C10.2866 9.44153 14.9987 5.04555 15.0899 4.64677C15.1013 4.59689 15.1119 4.41098 15.0042 4.31282C14.8965 4.21465 14.7376 4.24822 14.6229 4.27492C14.4604 4.31276 11.871 6.06814 6.85486 9.54107C6.11988 10.0587 5.45416 10.3109 4.8577 10.2977C4.20015 10.2831 2.93528 9.91638 1.99498 9.60288C0.84166 9.21836 -0.0749729 9.01506 0.00484519 8.36203C0.0464194 8.0219 0.503103 7.67404 1.3749 7.31846Z"/>
    </symbol>

    <symbol id="whatsapp" viewBox="0 0 20 20">
        <path fill-rule="evenodd" clip-rule="evenodd" d="M17 2.875C15.125 1 12.625 0 10 0C4.5 0 0 4.5 0 10C0 11.75 0.500008 13.5 1.37501 15L0 20L5.25002 18.625C6.75002 19.375 8.375 19.875 10 19.875C15.5 19.875 20 15.375 20 9.875C20 7.25 18.875 4.75 17 2.875ZM10 18.25C8.5 18.25 7.00001 17.875 5.75001 17.125L5.49999 17L2.37499 17.875L3.25001 14.875L2.99999 14.5C2.12499 13.125 1.74999 11.625 1.74999 10.125C1.74999 5.625 5.5 1.875 10 1.875C12.25 1.875 14.25 2.75 15.875 4.25C17.5 5.875 18.25 7.875 18.25 10.125C18.25 14.5 14.625 18.25 10 18.25ZM14.5 12C14.25 11.875 13 11.25 12.75 11.25C12.5 11.125 12.375 11.125 12.25 11.375C12.125 11.625 11.625 12.125 11.5 12.375C11.375 12.5 11.25 12.5 11 12.5C10.75 12.375 10 12.125 9.00002 11.25C8.25002 10.625 7.75001 9.75 7.62501 9.5C7.50001 9.25 7.62502 9.125 7.75002 9C7.87502 8.875 8 8.75 8.125 8.625C8.25 8.5 8.25002 8.375 8.37502 8.25C8.50002 8.125 8.37502 8 8.37502 7.875C8.37502 7.75 7.87501 6.5 7.62501 6C7.50001 5.625 7.25002 5.625 7.12502 5.625C7.00002 5.625 6.87498 5.625 6.62498 5.625C6.49998 5.625 6.24998 5.625 5.99998 5.875C5.74998 6.125 5.12501 6.75 5.12501 8C5.12501 9.25 5.99999 10.375 6.12499 10.625C6.24999 10.75 7.87498 13.375 10.375 14.375C12.5 15.25 12.875 15 13.375 15C13.875 15 14.875 14.375 15 13.875C15.25 13.25 15.25 12.75 15.125 12.75C15 12.125 14.75 12.125 14.5 12Z"/>
    </symbol>

</svg>