<svg width="251" height="252" viewBox="0 0 251 252" fill="none" xmlns="http://www.w3.org/2000/svg">
    <path d="M62.7353 102.741L62.7217 102.734C61.9841 102.383 61.3735 101.953 60.8899 101.444C60.3972 100.931 60.0432 100.36 59.8278 99.7332C59.6169 99.0969 59.5448 98.415 59.6116 97.6875C59.6785 96.9601 59.8981 96.2048 60.2705 95.4217L61.193 93.4822C61.5438 92.7446 61.9442 92.1256 62.3944 91.6251C62.8398 91.1112 63.3778 90.7194 64.0085 90.4499L64.7407 91.9036C64.2756 92.1067 63.8733 92.401 63.5336 92.7866C63.1982 93.163 62.9006 93.6244 62.6408 94.1707L61.7184 96.1103C61.4628 96.6475 61.3153 97.1691 61.2756 97.675C61.2312 98.1675 61.2878 98.6355 61.4454 99.0789C61.5982 99.5088 61.845 99.9054 62.186 100.268C62.5312 100.622 62.9588 100.921 63.4687 101.163L63.4824 101.17C64.0014 101.417 64.5071 101.562 64.9996 101.607C65.4965 101.642 65.9644 101.585 66.4035 101.437C66.8378 101.275 67.2365 101.024 67.5996 100.683C67.9579 100.328 68.2649 99.8825 68.5204 99.3453L69.4428 97.4058C69.9841 96.2676 70.1287 95.2477 69.8764 94.3461L71.4661 93.9968C71.6502 94.6426 71.6923 95.2935 71.5925 95.9495C71.4927 96.6054 71.2587 97.3204 70.8906 98.0944L69.9682 100.034C69.5957 100.817 69.1485 101.464 68.6263 101.975C68.1042 102.486 67.5298 102.86 66.903 103.098C66.2806 103.327 65.6148 103.412 64.9055 103.354C64.1963 103.296 63.4729 103.091 62.7353 102.741Z" fill="#121212"/>
    <path d="M68.6621 90.4591L68.6502 90.4498C68.0057 89.9481 67.5022 89.3966 67.1398 88.7951C66.7774 88.1936 66.5587 87.5635 66.4838 86.9046C66.407 86.2316 66.4798 85.5471 66.7019 84.8512C66.9241 84.1553 67.3015 83.4652 67.8341 82.7809L69.2368 80.9786C69.7694 80.2942 70.3457 79.7589 70.9658 79.3727C71.592 78.9784 72.2377 78.7399 72.9027 78.6569C73.566 78.5599 74.2337 78.6131 74.9057 78.8168C75.5778 79.0204 76.2361 79.373 76.8806 79.8746L76.8925 79.8839C77.5371 80.3855 78.0445 80.9402 78.4149 81.5478C78.7852 82.1555 79.0048 82.7927 79.0736 83.4596C79.1485 84.1184 79.0718 84.7998 78.8434 85.5037C78.6212 86.1996 78.2439 86.8897 77.7113 87.574L76.3086 89.3763C75.776 90.0607 75.1997 90.596 74.5796 90.9822C73.9596 91.3685 73.3179 91.6102 72.6546 91.7072C71.9975 91.7964 71.3289 91.736 70.6489 91.5262C69.9689 91.3164 69.3067 90.9607 68.6621 90.4591ZM69.7304 89.0864C70.184 89.4394 70.6504 89.6938 71.1297 89.8496C71.601 89.9992 72.063 90.0458 72.5158 89.9893C72.9686 89.9329 73.4122 89.7734 73.8465 89.5109C74.2728 89.2422 74.6718 88.8691 75.0434 88.3917L76.4461 86.5894C77.1954 85.6265 77.5079 84.6751 77.3835 83.735C77.2591 82.7949 76.7393 81.9687 75.8243 81.2565L75.8123 81.2472C75.3588 80.8942 74.8963 80.6429 74.425 80.4933C73.9537 80.3437 73.4916 80.2972 73.0388 80.3536C72.586 80.4101 72.1434 80.5766 71.7108 80.8533C71.2765 81.1158 70.8736 81.4858 70.502 81.9632L69.0993 83.7655C68.7277 84.243 68.468 84.7244 68.3202 85.2099C68.1644 85.6892 68.1147 86.1552 68.1712 86.608C68.2276 87.0608 68.3863 87.4973 68.647 87.9174C68.9078 88.3376 69.2649 88.7242 69.7185 89.0771L69.7304 89.0864Z" fill="#121212"/>
    <path d="M80.0982 70.2347C80.7672 69.6829 81.4392 69.2855 82.1144 69.0423C82.7895 68.7991 83.4504 68.705 84.0969 68.7599C84.7434 68.8148 85.3653 69.0142 85.9626 69.3581C86.5599 69.7019 87.1152 70.185 87.6285 70.8073L87.6381 70.819C88.1449 71.4335 88.5103 72.0667 88.7342 72.7185C88.9582 73.3703 89.0356 74.0188 88.9665 74.664C88.8974 75.3091 88.6792 75.94 88.312 76.5565C87.9448 77.1731 87.4267 77.7572 86.7578 78.309L81.8922 82.322L75.2326 74.2478L80.0982 70.2347ZM82.216 79.9572L85.728 77.0605C86.6537 76.297 87.1563 75.4643 87.2357 74.5622C87.3229 73.6538 87.0137 72.7717 86.3079 71.9161L86.2983 71.9044C85.5926 71.0488 84.7855 70.5773 83.8771 70.4901C82.97 70.3887 82.0536 70.7197 81.1279 71.4832L77.6159 74.3799L82.216 79.9572Z" fill="#121212"/>
    <path d="M95.7634 60.3382L96.512 61.7217L89.6083 65.4575L90.9903 68.0115L97.2955 64.5996L98.0369 65.9697L91.7317 69.3816L93.0922 71.8957L99.9959 68.1598L100.745 69.5433L92.311 74.1069L87.3299 64.9018L95.7634 60.3382Z" fill="#121212"/>
    <path d="M98.6346 59.1583L107.732 56.1284L108.244 57.6638L100.796 60.1441L101.776 63.0859L108.578 60.8206L109.089 62.3561L102.287 64.6213L103.592 68.5388L101.942 69.0884L98.6346 59.1583Z" fill="#121212"/>
    <path d="M110.927 60.582L110.925 60.5669C110.828 59.756 110.865 59.0102 111.038 58.3294C111.21 57.6486 111.503 57.0497 111.918 56.5326C112.342 56.0044 112.88 55.5742 113.53 55.2421C114.181 54.9101 114.937 54.6923 115.798 54.5889L118.065 54.3165C118.926 54.213 119.712 54.2456 120.423 54.414C121.144 54.5813 121.768 54.872 122.295 55.286C122.831 55.6888 123.263 56.2005 123.591 56.8211C123.92 57.4418 124.133 58.1576 124.23 58.9685L124.232 58.9835C124.33 59.7944 124.293 60.5452 124.122 61.236C123.951 61.9269 123.653 62.5314 123.228 63.0496C122.813 63.5667 122.275 63.9918 121.614 64.3251C120.963 64.6572 120.207 64.8749 119.346 64.9783L117.079 65.2508C116.218 65.3542 115.432 65.3217 114.721 65.1532C114.01 64.9847 113.387 64.6991 112.851 64.2963C112.325 63.8923 111.898 63.375 111.568 62.7443C111.238 62.1136 111.025 61.3929 110.927 60.582ZM112.654 60.3745C112.723 60.9451 112.87 61.4555 113.097 61.9055C113.323 62.3456 113.615 62.7066 113.974 62.9884C114.333 63.2703 114.758 63.4731 115.25 63.5968C115.741 63.7104 116.287 63.7312 116.888 63.659L119.155 63.3866C120.367 63.241 121.262 62.7932 121.842 62.0431C122.423 61.2929 122.644 60.3422 122.505 59.191L122.503 59.1759C122.435 58.6053 122.288 58.1 122.062 57.6599C121.837 57.2198 121.545 56.8589 121.186 56.577C120.827 56.2951 120.397 56.098 119.896 55.9855C119.404 55.8618 118.857 55.8361 118.257 55.9082L115.989 56.1807C115.389 56.2528 114.864 56.4073 114.415 56.644C113.965 56.8707 113.599 57.1635 113.317 57.5224C113.035 57.8812 112.837 58.3011 112.722 58.7821C112.607 59.263 112.584 59.7888 112.652 60.3595L112.654 60.3745Z" fill="#121212"/>
    <path d="M137.061 65.3551L135.119 65.1714L133.096 61.5011L132.96 61.4882L128.157 61.034L127.831 64.4822L126.099 64.3184L127.084 53.8986L133.619 54.5166C134.322 54.5831 134.926 54.7263 135.432 54.9463C135.938 55.1663 136.347 55.4481 136.659 55.7915C136.982 56.1259 137.208 56.517 137.338 56.9648C137.468 57.4126 137.507 57.9025 137.457 58.4345L137.456 58.4496C137.382 59.2326 137.122 59.8866 136.678 60.4117C136.244 60.9278 135.615 61.2633 134.79 61.4182L137.061 65.3551ZM128.669 55.6133L128.299 59.5282L133.103 59.9825C133.916 60.0594 134.543 59.9567 134.985 59.6744C135.428 59.382 135.679 58.9196 135.739 58.2872L135.741 58.2722C135.801 57.6297 135.642 57.1234 135.261 56.7532C134.882 56.373 134.286 56.1444 133.473 56.0675L128.669 55.6133Z" fill="#121212"/>
    <path d="M150.611 58.415L150.168 59.9241L142.636 57.711L141.818 60.4972L148.696 62.5184L148.257 64.013L141.379 61.9918L140.573 64.7345L148.104 66.9475L147.66 68.4567L138.46 65.7532L141.411 55.7115L150.611 58.415Z" fill="#121212"/>
    <path d="M150.877 64.047L150.883 64.0336C151.257 63.3071 151.705 62.71 152.229 62.2423C152.757 61.7656 153.338 61.4293 153.972 61.2334C154.614 61.0421 155.298 60.991 156.023 61.0802C156.748 61.1694 157.496 61.4121 158.268 61.8085L160.178 62.7901C160.904 63.1634 161.511 63.5828 161.997 64.0481C162.497 64.5091 162.872 65.0589 163.122 65.6975L161.647 66.3847C161.458 65.9136 161.176 65.5024 160.801 65.151C160.435 64.8043 159.983 64.4926 159.445 64.2161L157.535 63.2344C157.006 62.9625 156.489 62.799 155.985 62.7438C155.494 62.6843 155.024 62.7264 154.576 62.8703C154.142 63.0098 153.738 63.2443 153.364 63.5739C153 63.9081 152.689 64.3263 152.43 64.8286L152.424 64.842C152.161 65.3532 152 65.8542 151.94 66.3451C151.89 66.8406 151.932 67.3101 152.067 67.7535C152.215 68.1926 152.454 68.5988 152.784 68.9723C153.127 69.3413 153.563 69.6618 154.092 69.9337L156.002 70.9154C157.124 71.4915 158.138 71.6673 159.047 71.4428L159.348 73.0426C158.696 73.2067 158.045 73.2288 157.392 73.1089C156.739 72.9889 156.032 72.7331 155.27 72.3413L153.359 71.3597C152.588 70.9633 151.955 70.4964 151.461 69.9588C150.966 69.4212 150.609 68.8355 150.391 68.2017C150.181 67.5726 150.117 66.9045 150.197 66.1973C150.277 65.4902 150.503 64.7734 150.877 64.047Z" fill="#121212"/>
    <path d="M173.97 72.5719L172.999 73.8096L166.823 68.9651L165.031 71.25L170.672 75.6745L169.71 76.9003L164.069 72.4758L162.305 74.725L168.482 79.5695L167.511 80.8072L159.966 74.8892L166.425 66.6539L173.97 72.5719Z" fill="#121212"/>
    <path d="M186.444 98.1992L186.459 98.1942C187.229 97.9221 187.965 97.7956 188.667 97.8149C189.378 97.8309 190.031 97.985 190.627 98.2773C191.225 98.579 191.758 99.0112 192.224 99.5737C192.69 100.136 193.067 100.826 193.356 101.644L194.072 103.669C194.344 104.439 194.497 105.16 194.532 105.832C194.579 106.511 194.474 107.168 194.218 107.804L192.673 107.291C192.859 106.819 192.936 106.327 192.905 105.814C192.877 105.31 192.762 104.773 192.56 104.203L191.845 102.178C191.647 101.617 191.383 101.143 191.054 100.757C190.738 100.377 190.367 100.085 189.943 99.8825C189.531 99.6858 189.076 99.5791 188.578 99.5625C188.084 99.5555 187.571 99.646 187.038 99.8341L187.024 99.8392C186.482 100.031 186.021 100.285 185.641 100.601C185.264 100.926 184.972 101.297 184.766 101.712C184.573 102.133 184.468 102.593 184.451 103.09C184.448 103.594 184.545 104.127 184.743 104.688L185.459 106.713C185.879 107.901 186.496 108.725 187.311 109.186L186.432 110.556C185.845 110.228 185.356 109.797 184.964 109.262C184.572 108.727 184.233 108.055 183.947 107.247L183.231 105.222C182.942 104.404 182.803 103.63 182.812 102.9C182.821 102.169 182.964 101.499 183.24 100.888C183.519 100.286 183.931 99.756 184.474 99.2966C185.018 98.8371 185.674 98.4714 186.444 98.1992Z" fill="#121212"/>
    <path d="M190.854 110.876L190.869 110.874C191.68 110.77 192.426 110.802 193.108 110.969C193.79 111.136 194.391 111.425 194.911 111.837C195.442 112.257 195.876 112.791 196.213 113.439C196.55 114.087 196.774 114.842 196.883 115.702L197.173 117.967C197.282 118.827 197.256 119.613 197.092 120.325C196.931 121.048 196.645 121.674 196.234 122.204C195.836 122.743 195.327 123.178 194.709 123.512C194.091 123.845 193.377 124.063 192.566 124.166L192.551 124.168C191.741 124.272 190.99 124.24 190.298 124.075C189.606 123.909 188.999 123.615 188.478 123.194C187.958 122.783 187.529 122.248 187.191 121.59C186.854 120.941 186.63 120.187 186.521 119.327L186.231 117.062C186.121 116.201 186.148 115.415 186.311 114.703C186.475 113.991 186.756 113.366 187.154 112.827C187.554 112.298 188.069 111.866 188.697 111.532C189.325 111.198 190.044 110.979 190.854 110.876ZM191.075 112.601C190.505 112.674 189.995 112.825 189.547 113.055C189.109 113.284 188.75 113.579 188.471 113.94C188.191 114.301 187.992 114.728 187.872 115.221C187.762 115.712 187.745 116.258 187.822 116.859L188.111 119.124C188.265 120.334 188.72 121.227 189.474 121.801C190.229 122.376 191.181 122.59 192.331 122.443L192.346 122.441C192.916 122.368 193.421 122.217 193.859 121.989C194.297 121.76 194.656 121.465 194.935 121.104C195.214 120.743 195.408 120.312 195.517 119.81C195.637 119.317 195.659 118.77 195.582 118.17L195.293 115.905C195.216 115.305 195.058 114.781 194.818 114.334C194.588 113.885 194.293 113.522 193.932 113.242C193.571 112.963 193.149 112.768 192.668 112.657C192.186 112.545 191.66 112.526 191.09 112.599L191.075 112.601Z" fill="#121212"/>
    <path d="M197.121 133.246C197.039 134.109 196.846 134.866 196.542 135.516C196.237 136.166 195.837 136.7 195.342 137.119C194.846 137.538 194.266 137.838 193.601 138.018C192.935 138.198 192.201 138.25 191.398 138.174L191.383 138.173C190.59 138.098 189.884 137.909 189.264 137.608C188.644 137.306 188.131 136.903 187.723 136.398C187.314 135.894 187.022 135.294 186.844 134.599C186.667 133.903 186.619 133.124 186.701 132.261L187.295 125.982L197.715 126.967L197.121 133.246ZM188.741 127.881L188.312 132.413C188.199 133.608 188.434 134.552 189.017 135.245C189.598 135.948 190.441 136.352 191.545 136.456L191.561 136.458C192.665 136.562 193.568 136.323 194.272 135.742C194.984 135.171 195.397 134.288 195.51 133.094L195.938 128.561L188.741 127.881Z" fill="#121212"/>
    <path d="M193.06 151.308L191.553 150.859L193.795 143.336L191.012 142.507L188.964 149.377L187.471 148.932L189.519 142.062L186.779 141.246L184.537 148.768L183.03 148.319L185.769 139.129L195.799 142.119L193.06 151.308Z" fill="#121212"/>
    <path d="M191.811 154.365L187.494 162.927L186.049 162.199L189.583 155.189L186.815 153.794L183.587 160.195L182.142 159.466L185.37 153.065L181.683 151.206L182.466 149.653L191.811 154.365Z" fill="#121212"/>
    <path d="M182.18 161.953L182.192 161.962C182.832 162.469 183.332 163.024 183.689 163.628C184.047 164.232 184.261 164.864 184.331 165.524C184.403 166.197 184.325 166.881 184.098 167.575C183.87 168.27 183.487 168.957 182.95 169.637L181.534 171.429C180.996 172.109 180.415 172.64 179.792 173.022C179.163 173.411 178.516 173.645 177.85 173.723C177.186 173.815 176.519 173.756 175.848 173.548C175.178 173.339 174.522 172.981 173.882 172.475L173.87 172.466C173.229 171.959 172.726 171.401 172.36 170.79C171.994 170.18 171.779 169.541 171.716 168.874C171.646 168.214 171.728 167.533 171.961 166.831C172.189 166.137 172.571 165.45 173.109 164.77L174.525 162.978C175.063 162.298 175.643 161.767 176.266 161.385C176.889 161.003 177.533 160.767 178.197 160.675C178.854 160.59 179.523 160.656 180.201 160.871C180.879 161.086 181.539 161.446 182.18 161.953ZM181.101 163.317C180.65 162.961 180.186 162.703 179.708 162.544C179.237 162.39 178.776 162.34 178.323 162.393C177.869 162.447 177.425 162.603 176.988 162.862C176.56 163.127 176.158 163.497 175.783 163.972L174.367 165.764C173.61 166.721 173.291 167.67 173.408 168.611C173.525 169.552 174.039 170.382 174.948 171.101L174.96 171.11C175.411 171.467 175.872 171.722 176.342 171.875C176.812 172.028 177.274 172.078 177.727 172.025C178.18 171.972 178.624 171.809 179.059 171.535C179.495 171.276 179.901 170.909 180.276 170.435L181.692 168.643C182.067 168.168 182.331 167.689 182.482 167.204C182.641 166.726 182.695 166.261 182.642 165.807C182.589 165.354 182.433 164.917 182.176 164.495C181.918 164.072 181.564 163.683 181.113 163.327L181.101 163.317Z" fill="#121212"/>
    <path d="M160.273 177.037L161.783 175.802L165.803 176.987L165.908 176.901L169.641 173.845L167.447 171.165L168.793 170.063L175.423 178.161L170.344 182.319C169.798 182.767 169.267 183.09 168.753 183.289C168.239 183.489 167.75 183.576 167.287 183.552C166.822 183.541 166.386 183.422 165.979 183.195C165.572 182.968 165.199 182.648 164.86 182.235L164.851 182.223C164.352 181.614 164.077 180.967 164.023 180.281C163.968 179.609 164.18 178.928 164.657 178.238L160.273 177.037ZM173.09 178.058L170.599 175.015L166.866 178.071C166.234 178.588 165.86 179.103 165.745 179.614C165.636 180.134 165.782 180.639 166.185 181.131L166.194 181.143C166.603 181.642 167.073 181.889 167.604 181.885C168.141 181.888 168.725 181.631 169.357 181.114L173.09 178.058Z" fill="#121212"/>
    <path d="M155.415 191.648L154.666 190.265L161.57 186.529L160.188 183.975L153.882 187.387L153.141 186.017L159.446 182.605L158.086 180.091L151.182 183.827L150.433 182.443L158.867 177.88L163.848 187.085L155.415 191.648Z" fill="#121212"/>
    <path d="M127.255 193.017L127.254 193.032C127.198 193.847 127.023 194.573 126.727 195.209C126.43 195.856 126.03 196.395 125.526 196.826C125.011 197.256 124.404 197.573 123.703 197.778C123.001 197.983 122.218 198.057 121.353 197.998L119.21 197.853C118.395 197.797 117.673 197.652 117.042 197.417C116.4 197.192 115.838 196.836 115.356 196.348L116.439 195.133C116.798 195.491 117.22 195.757 117.703 195.931C118.177 196.105 118.715 196.212 119.319 196.253L121.462 196.398C122.055 196.439 122.594 196.384 123.08 196.235C123.554 196.096 123.968 195.871 124.323 195.562C124.667 195.262 124.945 194.886 125.157 194.436C125.36 193.985 125.48 193.477 125.518 192.914L125.519 192.899C125.558 192.326 125.508 191.802 125.368 191.327C125.218 190.852 124.994 190.438 124.695 190.084C124.384 189.74 124.004 189.461 123.554 189.249C123.092 189.046 122.565 188.924 121.971 188.884L119.829 188.738C118.571 188.653 117.569 188.893 116.824 189.459L115.915 188.109C116.448 187.7 117.038 187.422 117.684 187.274C118.331 187.126 119.082 187.081 119.937 187.139L122.08 187.284C122.945 187.343 123.711 187.521 124.378 187.819C125.045 188.117 125.605 188.514 126.056 189.009C126.497 189.504 126.821 190.092 127.028 190.773C127.234 191.454 127.31 192.202 127.255 193.017Z" fill="#121212"/>
    <path d="M113.83 192.085L113.826 192.099C113.599 192.884 113.273 193.556 112.848 194.115C112.424 194.675 111.92 195.111 111.335 195.425C110.739 195.745 110.076 195.931 109.347 195.983C108.618 196.034 107.838 195.939 107.005 195.698L104.811 195.062C103.978 194.821 103.267 194.484 102.679 194.051C102.081 193.615 101.62 193.104 101.297 192.517C100.961 191.937 100.763 191.297 100.703 190.597C100.644 189.897 100.727 189.155 100.955 188.371L100.959 188.356C101.186 187.572 101.513 186.895 101.941 186.326C102.368 185.757 102.878 185.317 103.472 185.006C104.057 184.692 104.718 184.511 105.456 184.463C106.185 184.411 106.966 184.506 107.799 184.748L109.992 185.383C110.825 185.624 111.536 185.961 112.124 186.394C112.713 186.827 113.175 187.334 113.511 187.914C113.837 188.491 114.029 189.135 114.086 189.844C114.143 190.553 114.057 191.3 113.83 192.085ZM112.159 191.601C112.319 191.049 112.383 190.521 112.35 190.018C112.315 189.525 112.187 189.079 111.967 188.679C111.746 188.279 111.434 187.926 111.029 187.62C110.622 187.324 110.127 187.091 109.546 186.923L107.353 186.288C106.181 185.948 105.181 186.01 104.354 186.474C103.527 186.938 102.952 187.727 102.629 188.84L102.625 188.855C102.465 189.407 102.403 189.93 102.439 190.423C102.474 190.916 102.602 191.362 102.822 191.762C103.043 192.162 103.361 192.511 103.778 192.811C104.183 193.117 104.676 193.354 105.257 193.522L107.451 194.158C108.032 194.326 108.575 194.389 109.081 194.347C109.584 194.314 110.035 194.187 110.435 193.967C110.834 193.747 111.181 193.438 111.475 193.04C111.769 192.642 111.995 192.167 112.155 191.615L112.159 191.601Z" fill="#121212"/>
    <path d="M90.3076 188.762C89.5488 188.343 88.9325 187.863 88.4585 187.324C87.9846 186.786 87.6545 186.205 87.4684 185.584C87.2822 184.962 87.2395 184.31 87.3402 183.629C87.4409 182.947 87.6865 182.253 88.077 181.547L88.0843 181.534C88.47 180.837 88.9249 180.265 89.4491 179.817C89.9733 179.37 90.5481 179.06 91.1736 178.887C91.7991 178.715 92.466 178.686 93.1743 178.802C93.8826 178.917 94.6161 179.185 95.3748 179.604L100.893 182.658L95.8261 191.816L90.3076 188.762ZM98.5747 183.225L94.5913 181.021C93.5414 180.44 92.5824 180.278 91.7141 180.535C90.837 180.787 90.13 181.398 89.593 182.369L89.5857 182.382C89.0487 183.353 88.9063 184.276 89.1585 185.153C89.397 186.034 90.0412 186.765 91.0911 187.346L95.0745 189.55L98.5747 183.225Z" fill="#121212"/>
    <path d="M75.2317 177.72L76.2483 176.519L82.2382 181.593L84.1151 179.377L78.6445 174.743L79.6514 173.555L85.1219 178.188L86.9695 176.007L80.9796 170.934L81.9963 169.733L89.3134 175.931L82.5488 183.917L75.2317 177.72Z" fill="#121212"/>
    <path d="M73.2615 175.699L67.1329 168.324L68.3776 167.29L73.3946 173.327L75.7792 171.346L71.1973 165.832L72.442 164.798L77.0239 170.311L80.1996 167.672L81.3112 169.01L73.2615 175.699Z" fill="#121212"/>
    <path d="M70.0615 163.733L70.0481 163.74C69.3284 164.126 68.6202 164.363 67.9235 164.45C67.2268 164.538 66.562 164.483 65.9293 164.284C65.2829 164.082 64.6866 163.738 64.1403 163.253C63.594 162.768 63.116 162.144 62.706 161.379L61.6264 159.367C61.2165 158.603 60.9606 157.859 60.8586 157.136C60.7518 156.403 60.7953 155.716 60.9888 155.075C61.1688 154.429 61.488 153.84 61.9463 153.308C62.4047 152.776 62.9938 152.317 63.7135 151.931L63.7268 151.924C64.4466 151.538 65.1592 151.299 65.8648 151.206C66.5704 151.114 67.242 151.171 67.8795 151.378C68.5122 151.577 69.1041 151.923 69.6552 152.417C70.2014 152.902 70.6795 153.526 71.0894 154.291L72.169 156.303C72.5789 157.067 72.8349 157.811 72.9369 158.534C73.0388 159.258 72.9999 159.942 72.8199 160.588C72.6352 161.225 72.3092 161.812 71.842 162.348C71.3747 162.885 70.7812 163.347 70.0615 163.733ZM69.2393 162.2C69.7457 161.928 70.1672 161.605 70.5038 161.23C70.8315 160.859 71.0613 160.456 71.1931 160.019C71.3249 159.582 71.3588 159.112 71.2947 158.609C71.2217 158.11 71.0422 157.594 70.7562 157.061L69.6766 155.048C69.0999 153.973 68.3566 153.302 67.4467 153.035C66.5367 152.768 65.5709 152.909 64.5491 153.457L64.5357 153.464C64.0293 153.736 63.6122 154.057 63.2845 154.427C62.9568 154.797 62.727 155.201 62.5952 155.638C62.4634 156.074 62.4364 156.547 62.5141 157.054C62.5782 157.558 62.7532 158.076 63.0392 158.609L64.1188 160.622C64.4048 161.155 64.7398 161.587 65.1237 161.919C65.4988 162.256 65.9048 162.49 66.3417 162.622C66.7785 162.753 67.2418 162.785 67.7316 162.717C68.2213 162.649 68.7195 162.479 69.2259 162.207L69.2393 162.2Z" fill="#121212"/>
    <path d="M64.867 137.467L65.4018 139.343L62.7178 142.562L62.7551 142.693L64.0778 147.333L67.4087 146.383L67.8855 148.056L57.8202 150.925L56.0207 144.613C55.8272 143.934 55.741 143.319 55.7621 142.768C55.7832 142.216 55.897 141.733 56.1037 141.318C56.2978 140.895 56.5799 140.542 56.9499 140.259C57.3198 139.975 57.7618 139.76 58.2757 139.613L58.2903 139.609C59.0466 139.394 59.7502 139.397 60.401 139.621C61.0394 139.837 61.5807 140.302 62.0248 141.014L64.867 137.467ZM58.8415 148.826L62.6233 147.747L61.3006 143.108C61.0767 142.322 60.7529 141.775 60.3293 141.466C59.896 141.159 59.3738 141.093 58.7629 141.267L58.7484 141.272C58.1278 141.448 57.7142 141.781 57.5075 142.27C57.2912 142.762 57.2949 143.4 57.5188 144.186L58.8415 148.826Z" fill="#121212"/>
    <path d="M53.418 127.497L54.9846 127.356L55.6892 135.174L58.5814 134.913L57.938 127.773L59.4895 127.633L60.1329 134.773L62.98 134.517L62.2755 126.699L63.8421 126.557L64.7027 136.108L54.2786 137.047L53.418 127.497Z" fill="#121212"/>
</svg>
